{"scene":0,"asset":{"generator":"ImageToStl.com","version":"2.0"},"scenes":[{"name":"Scene","nodes":[0]}],"nodes":[{"name":"Node0","children":[1]},{"name":"Node1","mesh":0,"children":[2,3]},{"name":"Node2","mesh":1},{"name":"Node3","mesh":2}],"materials":[{"name":"x1","pbrMetallicRoughness":{"baseColorFactor":[0.85,0.85,0.85,1.0],"metallicFactor":0.0,"roughnessFactor":1.0},"doubleSided":true}],"meshes":[{"name":"Mesh0","primitives":[{"indices":1,"material":0,"attributes":{"POSITION":0}}]},{"name":"Mesh0","primitives":[{"indices":3,"material":0,"attributes":{"POSITION":2}}]},{"name":"Mesh0","primitives":[{"indices":5,"material":0,"attributes":{"POSITION":4}}]}],"accessors":[{"bufferView":0,"componentType":5126,"count":22117,"type":"VEC3","min":[-70.08281,-46.3,-14.276312],"max":[70.04199,7.622158,14.638538]},{"bufferView":1,"componentType":5123,"count":130563,"type":"SCALAR"},{"bufferView":2,"componentType":5126,"count":30044,"type":"VEC3","min":[-82.63706,-48.0,-27.40349],"max":[-27.830082,0.36,27.40349]},{"bufferView":3,"componentType":5123,"count":176232,"type":"SCALAR"},{"bufferView":4,"componentType":5126,"count":18981,"type":"VEC3","min":[-79.733574,-48.0,-24.42097],"max":[-30.733574,-29.300234,27.35263]},{"bufferView":5,"componentType":5123,"count":113298,"type":"SCALAR"}],"bufferViews":[{"target":34962,"buffer":0,"byteLength":265404,"byteOffset":0},{"target":34963,"buffer":0,"byteLength":261126,"byteOffset":265404},{"target":34962,"buffer":0,"byteLength":360528,"byteOffset":526532},{"target":34963,"buffer":0,"byteLength":352464,"byteOffset":887060},{"target":34962,"buffer":0,"byteLength":227772,"byteOffset":1239524},{"target":34963,"buffer":0,"byteLength":226596,"byteOffset":1467296}],"buffers":[{"byteLength":1693892,"uri":"data:application/octet-stream;base64,"}]}